grf
version=1
nRows=17
nColumns=37
inDegrees=no
endheader
time	ground_force_1_vx	ground_force_1_vy	ground_force_1_vz	ground_force_1_px	ground_force_1_py	ground_force_1_pz	ground_moment_1_mx	ground_moment_1_my	ground_moment_1_mz	ground_force_2_vx	ground_force_2_vy	ground_force_2_vz	ground_force_2_px	ground_force_2_py	ground_force_2_pz	ground_moment_2_mx	ground_moment_2_my	ground_moment_2_mz	ground_force_3_vx	ground_force_3_vy	ground_force_3_vz	ground_force_3_px	ground_force_3_py	ground_force_3_pz	ground_moment_3_mx	ground_moment_3_my	ground_moment_3_mz	ground_force_4_vx	ground_force_4_vy	ground_force_4_vz	ground_force_4_px	ground_force_4_py	ground_force_4_pz	ground_moment_4_mx	ground_moment_4_my	ground_moment_4_mz
      1.70000000	      0.00000000	     -0.00000000	      0.00000000	      0.00000000	      0.00000000	      0.00000000	      0.00000000	      0.00000000	      0.00000000	    -11.24477196	     35.34073639	   -426.88449097	   -297.36757317	  -1149.31288467	      0.00000000	      0.00000000	      0.00000000	  12550.21630681	      7.08795883	    -27.05707231	   -416.38031006	   -330.74917992	   -706.03226949	      0.00000000	      0.00000000	     -0.00000000	 -11542.24752485	      0.00000000	     -0.00000000	      0.00000000	      0.00000000	      0.00000000	      0.00000000	      0.00000000	      0.00000000	      0.00000000
      1.71000000	      0.00000000	     -0.00000000	      0.00000000	      0.00000000	      0.00000000	      0.00000000	      0.00000000	      0.00000000	      0.00000000	    -10.49118042	     35.18124771	   -426.77581787	   -296.90003554	  -1149.39633196	      0.00000000	      0.00000000	      0.00000000	  12591.72658396	      6.92247394	    -26.88513816	   -417.03240967	   -330.05567132	   -706.39077935	      0.00000000	      0.00000000	     -0.00000000	 -11553.76092738	      0.00000000	     -0.00000000	      0.00000000	      0.00000000	      0.00000000	      0.00000000	      0.00000000	      0.00000000	      0.00000000
      1.72000000	      0.00000000	     -0.00000000	      0.00000000	      0.00000000	      0.00000000	      0.00000000	      0.00000000	      0.00000000	      0.00000000	    -10.36478329	     34.36323547	   -426.97753906	   -296.20126794	  -1149.09057579	      0.00000000	      0.00000000	      0.00000000	  12614.26858455	      6.06452899	    -26.71613365	   -418.77923584	   -329.06748227	   -706.17200038	      0.00000000	      0.00000000	     -0.00000000	 -11413.25631080	      0.00000000	     -0.00000000	      0.00000000	      0.00000000	      0.00000000	      0.00000000	      0.00000000	      0.00000000	      0.00000000
      1.73000000	      0.00000000	     -0.00000000	      0.00000000	      0.00000000	      0.00000000	      0.00000000	      0.00000000	      0.00000000	      0.00000000	     -9.88599014	     33.25916290	   -424.61499023	   -295.79402613	  -1148.75170867	      0.00000000	      0.00000000	      0.00000000	  12706.14817614	      6.18658353	    -27.11763436	   -419.01638794	   -327.94376178	   -705.55211084	      0.00000000	      0.00000000	     -0.00000000	 -11562.23682805	      0.00000000	     -0.00000000	      0.00000000	      0.00000000	      0.00000000	      0.00000000	      0.00000000	      0.00000000	      0.00000000
      1.74000000	      0.00000000	     -0.00000000	      0.00000000	      0.00000000	      0.00000000	      0.00000000	      0.00000000	      0.00000000	      0.00000000	     -9.19363880	     32.42807770	   -425.29916382	   -294.88629148	  -1148.88793145	      0.00000000	      0.00000000	      0.00000000	  12685.87163375	      5.81631851	    -27.28214696	   -417.36859131	   -326.67127039	   -706.01613299	      0.00000000	      0.00000000	     -0.00000000	 -11378.27557945	      0.00000000	     -0.00000000	      0.00000000	      0.00000000	      0.00000000	      0.00000000	      0.00000000	      0.00000000	      0.00000000
      1.75000000	      0.00000000	     -0.00000000	      0.00000000	      0.00000000	      0.00000000	      0.00000000	      0.00000000	      0.00000000	      0.00000000	     -9.28073978	     32.15665436	   -424.51867676	   -293.97113056	  -1148.48187472	      0.00000000	      0.00000000	      0.00000000	  12709.36468361	      6.06197978	    -27.21545463	   -416.89825439	   -325.27493366	   -705.61913448	      0.00000000	      0.00000000	     -0.00000000	 -11437.00398223	      0.00000000	     -0.00000000	      0.00000000	      0.00000000	      0.00000000	      0.00000000	      0.00000000	      0.00000000	      0.00000000
      1.76000000	      0.00000000	     -0.00000000	      0.00000000	      0.00000000	      0.00000000	      0.00000000	      0.00000000	      0.00000000	      0.00000000	     -9.28591824	     31.63605118	   -423.55807495	   -293.48767716	  -1147.70685505	      0.00000000	      0.00000000	      0.00000000	  12738.61854959	      5.43315024	    -27.85714006	   -418.97094727	   -323.99585711	   -705.71585678	      0.00000000	      0.00000000	     -0.00000000	 -11572.85037893	      0.00000000	     -0.00000000	      0.00000000	      0.00000000	      0.00000000	      0.00000000	      0.00000000	      0.00000000	      0.00000000
      1.77000000	      0.00000000	     -0.00000000	      0.00000000	      0.00000000	      0.00000000	      0.00000000	      0.00000000	      0.00000000	      0.00000000	     -8.74244022	     31.30447388	   -424.82162476	   -293.02182363	  -1148.99970447	      0.00000000	      0.00000000	      0.00000000	  12761.74431990	      5.22830333	    -28.43407486	   -421.25146484	   -323.00170879	   -704.71046241	      0.00000000	      0.00000000	     -0.00000000	 -11574.40872017	      0.00000000	     -0.00000000	      0.00000000	      0.00000000	      0.00000000	      0.00000000	      0.00000000	      0.00000000	      0.00000000
      1.78000000	      0.00000000	     -0.00000000	      0.00000000	      0.00000000	      0.00000000	      0.00000000	      0.00000000	      0.00000000	      0.00000000	     -8.46403980	     31.82252312	   -424.98623657	   -292.55333536	  -1148.56033747	      0.00000000	      0.00000000	      0.00000000	  12797.98113730	      4.55171140	    -29.06625978	   -422.92053223	   -321.88610608	   -704.56123045	      0.00000000	      0.00000000	     -0.00000000	 -11519.62653918	      0.00000000	     -0.00000000	      0.00000000	      0.00000000	      0.00000000	      0.00000000	      0.00000000	      0.00000000	      0.00000000
      1.79000000	      0.00000000	     -0.00000000	      0.00000000	      0.00000000	      0.00000000	      0.00000000	      0.00000000	      0.00000000	      0.00000000	     -8.29077625	     31.86626434	   -424.68682861	   -291.08971067	  -1148.93369454	      0.00000000	      0.00000000	      0.00000000	  12788.30513474	      4.55772238	    -29.43507616	   -424.71990967	   -320.97708448	   -704.45741905	      0.00000000	      0.00000000	     -0.00000000	 -11728.13120417	      0.00000000	     -0.00000000	      0.00000000	      0.00000000	      0.00000000	      0.00000000	      0.00000000	      0.00000000	      0.00000000
      1.80000000	      0.00000000	     -0.00000000	      0.00000000	      0.00000000	      0.00000000	      0.00000000	      0.00000000	      0.00000000	      0.00000000	     -8.36784267	     32.08694458	   -424.16259766	   -290.08676908	  -1149.82068184	      0.00000000	      0.00000000	      0.00000000	  12731.26298146	      4.23124908	    -30.20868148	   -424.47866821	   -319.98201967	   -704.84297235	      0.00000000	      0.00000000	     -0.00000000	 -11788.11522274	      0.00000000	     -0.00000000	      0.00000000	      0.00000000	      0.00000000	      0.00000000	      0.00000000	      0.00000000	      0.00000000
      1.81000000	      0.00000000	     -0.00000000	      0.00000000	      0.00000000	      0.00000000	      0.00000000	      0.00000000	      0.00000000	      0.00000000	     -8.72567081	     31.92479706	   -421.67938232	   -289.05357591	  -1147.74223363	      0.00000000	      0.00000000	      0.00000000	  12638.18235081	      2.98681231	    -30.49837139	   -426.21246338	   -319.08789493	   -703.87928372	      0.00000000	     -0.00000000	     -0.00000000	 -11724.62600161	      0.00000000	     -0.00000000	      0.00000000	      0.00000000	      0.00000000	      0.00000000	      0.00000000	      0.00000000	      0.00000000
      1.82000000	      0.00000000	     -0.00000000	      0.00000000	      0.00000000	      0.00000000	      0.00000000	      0.00000000	      0.00000000	      0.00000000	     -9.57420158	     31.35855103	   -420.28012085	   -288.56442458	  -1148.43749951	      0.00000000	      0.00000000	      0.00000000	  12681.25025068	      2.26066319	    -30.95149251	   -428.67538452	   -317.89209821	   -703.49300238	      0.00000000	     -0.00000000	     -0.00000000	 -12022.83284078	      0.00000000	     -0.00000000	      0.00000000	      0.00000000	      0.00000000	      0.00000000	      0.00000000	      0.00000000	      0.00000000
      1.83000000	      0.00000000	     -0.00000000	      0.00000000	      0.00000000	      0.00000000	      0.00000000	      0.00000000	      0.00000000	      0.00000000	    -10.75251961	     31.52474213	   -418.49206543	   -287.96972599	  -1148.92791910	      0.00000000	      0.00000000	      0.00000000	  12641.51353023	      1.06985818	    -31.46990976	   -430.18551636	   -317.30536381	   -703.67393081	      0.00000000	      0.00000000	     -0.00000000	 -12129.16719642	      0.00000000	     -0.00000000	      0.00000000	      0.00000000	      0.00000000	      0.00000000	      0.00000000	      0.00000000	      0.00000000
      1.84000000	      0.00000000	     -0.00000000	      0.00000000	      0.00000000	      0.00000000	      0.00000000	      0.00000000	      0.00000000	      0.00000000	    -11.35618591	     30.69245529	   -416.50347900	   -286.96400070	  -1148.45748039	      0.00000000	      0.00000000	      0.00000000	  12643.60102559	      0.29150291	    -31.47635272	   -432.65808105	   -316.09542959	   -703.15129270	      0.00000000	     -0.00000000	     -0.00000000	 -12145.47542222	      0.00000000	     -0.00000000	      0.00000000	      0.00000000	      0.00000000	      0.00000000	      0.00000000	      0.00000000	      0.00000000
      1.85000000	      0.00000000	     -0.00000000	      0.00000000	      0.00000000	      0.00000000	      0.00000000	      0.00000000	      0.00000000	      0.00000000	    -11.51331711	     30.39950180	   -414.18872070	   -286.07486043	  -1148.75712239	      0.00000000	      0.00000000	      0.00000000	  12716.47560876	     -1.11143915	    -31.78633299	   -433.28460693	   -315.85602418	   -702.96511409	      0.00000000	      0.00000000	     -0.00000000	 -12118.95597932	      0.00000000	     -0.00000000	      0.00000000	      0.00000000	      0.00000000	      0.00000000	      0.00000000	      0.00000000	      0.00000000
      1.86000000	      0.00000000	     -0.00000000	      0.00000000	      0.00000000	      0.00000000	      0.00000000	      0.00000000	      0.00000000	      0.00000000	    -11.78192139	     29.33353806	   -410.40313721	   -284.71367756	  -1147.94306507	      0.00000000	      0.00000000	      0.00000000	  12599.83590641	     -2.33078022	    -32.13950709	   -434.09103394	   -315.36046630	   -704.12899134	      0.00000000	      0.00000000	     -0.00000000	 -12061.11484955	      0.00000000	     -0.00000000	      0.00000000	      0.00000000	      0.00000000	      0.00000000	      0.00000000	      0.00000000	      0.00000000
